<?xml version="1.0" encoding="UTF-8" standalone="no"?>
<!-- Generator: Adobe Illustrator 19.0.0, SVG Export Plug-In . SVG Version: 6.00 Build 0)  -->

<svg
   xmlns:dc="http://purl.org/dc/elements/1.1/"
   xmlns:cc="http://creativecommons.org/ns#"
   xmlns:rdf="http://www.w3.org/1999/02/22-rdf-syntax-ns#"
   xmlns:svg="http://www.w3.org/2000/svg"
   xmlns="http://www.w3.org/2000/svg"
   xmlns:sodipodi="http://sodipodi.sourceforge.net/DTD/sodipodi-0.dtd"
   xmlns:inkscape="http://www.inkscape.org/namespaces/inkscape"
   version="1.1"
   id="Capa_1"
   x="0px"
   y="0px"
   viewBox="0 0 50 50"
   xml:space="preserve"
   sodipodi:docname="logo.svg"
   width="50"
   height="50"
   inkscape:version="0.92.4 5da689c313, 2019-01-14"
   inkscape:export-filename="/home/alexander/Projects/guardian/src/asstets/images/icon-96.png"
   inkscape:export-xdpi="184.32001"
   inkscape:export-ydpi="184.32001"><metadata
   id="metadata69"><rdf:RDF><cc:Work
       rdf:about=""><dc:format>image/svg+xml</dc:format><dc:type
         rdf:resource="http://purl.org/dc/dcmitype/StillImage" /><dc:title></dc:title></cc:Work></rdf:RDF></metadata><defs
   id="defs67"><linearGradient
     gradientTransform="matrix(1.0000426,0,0,1,0.499958,0.5)"
     y2="46"
     y1="2"
     x2="24"
     x1="24"
     gradientUnits="userSpaceOnUse"
     id="linearGradient4171"><stop
       style="stop-color:#1bc7ff;stop-opacity:1"
       offset="0"
       id="stop2" /><stop
       style="stop-color:#1ba7ff;stop-opacity:1"
       offset="1"
       id="stop4" /></linearGradient></defs><sodipodi:namedview
   pagecolor="#ffffff"
   bordercolor="#666666"
   borderopacity="1"
   objecttolerance="10"
   gridtolerance="10"
   guidetolerance="10"
   inkscape:pageopacity="0"
   inkscape:pageshadow="2"
   inkscape:window-width="1366"
   inkscape:window-height="740"
   id="namedview65"
   showgrid="false"
   showguides="false"
   inkscape:zoom="10.886975"
   inkscape:cx="29.805743"
   inkscape:cy="23.571628"
   inkscape:window-x="0"
   inkscape:window-y="0"
   inkscape:window-maximized="1"
   inkscape:current-layer="Capa_1" />














<g
   id="g34"
   transform="translate(1.5,-10.5)">
</g>
<g
   id="g36"
   transform="translate(1.5,-10.5)">
</g>
<g
   id="g38"
   transform="translate(1.5,-10.5)">
</g>
<g
   id="g40"
   transform="translate(1.5,-10.5)">
</g>
<g
   id="g42"
   transform="translate(1.5,-10.5)">
</g>
<g
   id="g44"
   transform="translate(1.5,-10.5)">
</g>
<g
   id="g46"
   transform="translate(1.5,-10.5)">
</g>
<g
   id="g48"
   transform="translate(1.5,-10.5)">
</g>
<g
   id="g50"
   transform="translate(1.5,-10.5)">
</g>
<g
   id="g52"
   transform="translate(1.5,-10.5)">
</g>
<g
   id="g54"
   transform="translate(1.5,-10.5)">
</g>
<g
   id="g56"
   transform="translate(1.5,-10.5)">
</g>
<g
   id="g58"
   transform="translate(1.5,-10.5)">
</g>
<g
   id="g60"
   transform="translate(1.5,-10.5)">
</g>
<g
   id="g62"
   transform="translate(1.5,-10.5)">
</g>
<g
   id="g991"><g
     id="g15"
     transform="matrix(1.0000426,0,0,1,0.499958,0.5)"><path
       id="path9"
       style="opacity:0.05"
       d="m 36.31,5 c 5.859,4.062 9.688,10.831 9.688,18.5 0,12.426 -10.07,22.5 -22.5,22.5 -7.669,0 -14.438,-3.828 -18.5,-9.688 1.037,1.822 2.306,3.499 3.781,4.969 4.085,3.712 9.514,5.969 15.469,5.969 12.703,0 23,-10.298 23,-23 0,-5.954 -2.256,-11.384 -5.969,-15.469 C 39.81,7.306 38.132,6.037 36.31,5 Z m 4.969,3.781 c 3.854,4.113 6.219,9.637 6.219,15.719 0,12.703 -10.297,23 -23,23 -6.081,0 -11.606,-2.364 -15.719,-6.219 4.16,4.144 9.883,6.719 16.219,6.719 12.703,0 23,-10.298 23,-23 0,-6.335 -2.575,-12.06 -6.719,-16.219 z"
       inkscape:connector-curvature="0" /><path
       id="path11"
       style="opacity:0.1"
       d="m 41.28,8.781 c 3.712,4.085 5.969,9.514 5.969,15.469 0,12.703 -10.297,23 -23,23 -5.954,0 -11.384,-2.256 -15.469,-5.969 4.113,3.854 9.637,6.219 15.719,6.219 12.703,0 23,-10.298 23,-23 0,-6.081 -2.364,-11.606 -6.219,-15.719 z"
       inkscape:connector-curvature="0" /><path
       id="path13"
       style="opacity:0.2"
       d="M 31.25,2.375 C 39.865,5.529 46,13.792 46,23.505 c 0,12.426 -10.07,22.5 -22.5,22.5 -9.708,0 -17.971,-6.135 -21.12,-14.75 a 23,23 0 0 0 44.875,-7 23,23 0 0 0 -16,-21.875 z"
       inkscape:connector-curvature="0" /></g><path
     id="path17"
     d="M 47.50196,24.5 A 23.000981,23.000001 0 0 1 24.500979,47.5 23.000981,23.000001 0 0 1 1.5,24.5 23.000981,23.000001 0 0 1 24.500979,1.5000002 23.000981,23.000001 0 0 1 47.50196,24.5 Z"
     style="opacity:1;fill:url(#linearGradient4171);fill-opacity:1;stroke-width:1.00002134"
     inkscape:connector-curvature="0" /><g
     id="g21"
     transform="matrix(1.0000426,0,0,1,0.499958,0.5)"><path
       id="path19"
       style="opacity:0.1"
       d="m 40.03,7.531 c 3.712,4.084 5.969,9.514 5.969,15.469 0,12.703 -10.297,23 -23,23 C 17.045,46 11.615,43.744 7.53,40.031 11.708,44.322 17.54,47 23.999,47 c 12.703,0 23,-10.298 23,-23 0,-6.462 -2.677,-12.291 -6.969,-16.469 z"
       inkscape:connector-curvature="0" /></g></g><g
   id="g859"
   transform="translate(-0.82667594,3.3067037)"><g
     style="opacity:0.53600003;fill:#ff3333;fill-opacity:1"
     transform="translate(2e-5,4e-6)"
     id="g854"><path
       style="opacity:0.25200004;fill:#003333;fill-opacity:1;fill-rule:evenodd;stroke:none;stroke-width:0.22652614"
       inkscape:connector-curvature="0"
       d="m 31.36816,26.937652 c -0.544661,0.693582 -2.214405,1.112836 -3.796442,0.953236 -2.288613,-0.230714 -3.450679,-1.055364 -4.103351,-2.91193 l -0.05127,-0.145671 -0.01323,0.215361 c -0.0032,0.05084 0.109616,0.698519 0.108716,0.748918 -0.02337,1.284383 0.671914,2.414894 1.758342,2.833512 1.703188,0.656643 5.299093,0.53791 7.406864,-0.24421 1.038748,-0.385499 2.70162,-1.557777 3.085549,-2.11703 0.05951,-0.08668 -0.02653,-0.755682 -0.03556,-0.807697 -0.01391,-0.08039 -0.328573,-0.153722 -1.328182,-0.308996 m -14.199781,1.196649 c -0.2012,0.08252 -3.170734,2.062566 -4.816743,3.211753 -0.883763,0.617028 -1.093145,0.765367 -1.94265,1.377607 -3.7857581,2.727503 -6.2848221,4.863531 -7.2597291,6.204973 -0.067934,0.09344 -0.1210639,0.166466 -0.1587704,0.221338 -0.1352259,0.196787 0.042723,0.757161 0.3327065,0.591544 0.538345,-0.307336 4.001107,-2.181568 5.673095,-3.070573 5.428114,-2.886157 9.921469,-5.029882 11.635426,-5.55133 0.182666,-0.05557 0.402873,-0.123096 0.489326,-0.150063 0,0 0.03325,-0.591944 0.04232,-0.646064 0.02795,-0.166769 -0.408546,-0.300713 -0.408546,-0.300713 -0.224674,-0.165501 -0.877306,-0.647704 -1.449916,-1.071883 -1.276635,-0.945202 -1.559465,-1.05328 -2.1365,-0.816543 m 15.76167,-0.474562 c -0.181593,0.304521 -0.463025,0.619162 -0.801087,0.896402 l -0.247718,0.203102 0.335858,0.592644 0.91197,-0.01822 c 3.019449,-0.05978 6.86501,-0.165726 8.312219,-0.228937 0.497712,-0.02179 0.845614,-0.03769 1.086424,-0.05049 0.416283,-0.02212 0.397725,-0.631984 0.394629,-0.649824 -0.01323,-0.07681 -3.02197,-0.395709 -7.446819,-0.789163 -0.509134,-0.04542 -1.252254,-0.111799 -1.651343,-0.148026 -0.398828,-0.03605 -0.729201,-0.06493 -0.733618,-0.06414 -0.0045,7.99e-4 -0.07664,0.116254 -0.160526,0.256588"
       id="path1-1-3"
       inkscape:transform-center-x="-7.3419193"
       inkscape:transform-center-y="-3.3681338"
       sodipodi:nodetypes="cccccsccsccccccscsscscccccccccsccccc" /></g><path
     inkscape:transform-center-y="-3.3681338"
     inkscape:transform-center-x="-7.3419193"
     id="path1-1"
     d="m 18.103054,4.9455277 c 0.03648,0.280972 0.385834,2.5388133 0.776538,5.0177542 l 0.709996,4.5071431 -0.110342,0.204337 c -1.066774,1.973772 -2.403103,3.60619 -3.62504,4.42894 -1.298851,0.874486 -3.047291,0.777425 -4.257431,-0.236216 -1.211779,-1.015203 -2.7840994,-3.793579 -3.9520654,-6.983101 -0.176366,-0.481736 -0.309823,-0.801652 -0.315571,-0.756018 -0.01952,0.156375 0.0065,1.054734 0.04645,1.598255 0.293149,4.00376 1.859602,7.355981 4.9294254,10.549845 0.288668,0.30051 0.677952,0.705505 0.864846,0.90011 0.697704,0.726096 0.844759,1.02196 1.028038,2.068499 0.163824,0.93577 0.173179,1.862477 0.02995,2.985111 -0.03024,0.236569 -0.0098,0.231511 0.20948,-0.05196 0.337712,-0.436748 0.463826,-0.819295 0.727712,-2.207586 0.573728,-3.017148 1.34255,-3.63086 2.539863,-2.027019 0.302532,0.405318 0.70185,1.076777 0.90485,1.521652 0.06045,0.132887 0.123305,0.239065 0.139638,0.236114 0.01615,-0.0029 0.212128,-0.108888 0.435333,-0.235329 0.873088,-0.494783 1.499803,-0.743272 1.805858,-0.715336 0.585193,0.05306 1.565584,0.778789 2.99145,2.214803 0.06544,0.06601 0.05943,0.04572 -0.03307,-0.111799 -2.728287,-4.637509 -0.53395,-7.740097 4.200691,-5.940143 0.535695,0.203674 1.429169,0.608525 2.579968,1.168792 2.558483,1.245835 3.494055,1.528343 4.697921,1.419146 1.83847,-0.166553 2.844578,-1.515949 2.131006,-2.858421 -1.332665,-2.506886 -5.626441,-5.526145 -9.54463,-6.711316 -3.868209,-1.170263 -5.973932,-0.532521 -9.246424,2.799661 -2.080951,2.119123 -2.723544,2.696124 -3.456259,3.1031 -1.259296,0.699417 -2.733344,0.59884 -3.996052,-0.272691 l -0.302634,-0.209026 0.459514,0.205801 c 1.562701,0.699179 2.958462,0.648038 4.047171,-0.148117 0.425953,-0.31168 0.548612,-0.449018 1.210256,-1.354638 2.14951,-2.942127 4.529165,-4.861732 6.734395,-5.43288 l 0.314865,-0.08143 -0.120456,-0.191255 c -0.06609,-0.105141 -0.420864,-0.668269 -0.788,-1.251465 C 22.502941,11.515687 22.054062,10.804158 21.872608,10.517521 21.549526,10.006975 21.122565,9.3298155 19.778942,7.198172 19.411366,6.615055 18.887711,5.7864803 18.615071,5.3564908 18.34247,4.9267257 18.100941,4.543386 18.0781,4.5050001 18.05357,4.4634411 18.06396,4.6434437 18.10309,4.9455287 m 9.905428,18.2417603 c -0.203154,0.30632 0.07019,0.901793 0.387444,0.844555 0.02407,-0.0044 0.200191,0.06261 0.391045,0.148714 2.167744,0.978141 3.152297,2.029696 2.581153,2.757094 -0.544661,0.693582 -2.214405,1.112836 -3.796442,0.953236 -2.288613,-0.230714 -3.450679,-1.055364 -4.103351,-2.91193 l -0.05127,-0.145671 -0.01323,0.215361 c -0.08342,1.346439 0.623193,2.550342 1.752252,2.985386 1.703188,0.656643 5.299093,0.53791 7.406864,-0.24421 1.199751,-0.445251 3.232097,-1.94008 3.164809,-2.327683 -0.01391,-0.08039 -0.328573,-0.153722 -1.328182,-0.308996 -1.575427,-0.244877 -1.75725,-0.306609 -3.831142,-1.301915 -1.868877,-0.897113 -2.326686,-1.015663 -2.559995,-0.663948 m -7.808644,3.162512 c -0.2012,0.08252 -3.170734,2.062566 -4.816743,3.211753 -0.883763,0.617028 -1.093145,0.765367 -1.94265,1.377607 -3.7857584,2.727503 -6.2848224,4.863531 -7.2597294,6.204973 -0.311566,0.428547 -0.311723,0.427647 0.05912,0.215796 0.538345,-0.307336 4.0010324,-2.18171 5.6730954,-3.070573 5.428039,-2.886299 9.921427,-5.030019 11.635426,-5.55133 0.182624,-0.05571 0.402873,-0.123096 0.489326,-0.150063 l 0.157137,-0.04902 -0.408546,-0.300713 c -0.224674,-0.165501 -0.877306,-0.647704 -1.449916,-1.071883 -1.276635,-0.945202 -1.559465,-1.05328 -2.1365,-0.816543 m 15.76167,-0.474562 c -0.181593,0.304521 -0.463025,0.619162 -0.801087,0.896402 l -0.247718,0.203102 1.133012,-0.02264 c 3.019449,-0.05978 6.86501,-0.165726 8.312219,-0.228937 1.358094,-0.05945 1.600756,-0.07511 1.595869,-0.103267 -0.01323,-0.07681 -3.02197,-0.395709 -7.446819,-0.789163 -0.509134,-0.04542 -1.252254,-0.111799 -1.651343,-0.148026 -0.398828,-0.03605 -0.729201,-0.06493 -0.733618,-0.06414 -0.0045,7.99e-4 -0.07664,0.116254 -0.160526,0.256588"
     inkscape:connector-curvature="0"
     style="fill:#ffffff;fill-rule:evenodd;stroke:none;stroke-width:0.22652614" /></g></svg>