<?xml version="1.0" encoding="UTF-8" standalone="no"?>
<!-- Generator: Adobe Illustrator 19.0.0, SVG Export Plug-In . SVG Version: 6.00 Build 0)  -->

<svg
   xmlns:dc="http://purl.org/dc/elements/1.1/"
   xmlns:cc="http://creativecommons.org/ns#"
   xmlns:rdf="http://www.w3.org/1999/02/22-rdf-syntax-ns#"
   xmlns:svg="http://www.w3.org/2000/svg"
   xmlns="http://www.w3.org/2000/svg"
   xmlns:sodipodi="http://sodipodi.sourceforge.net/DTD/sodipodi-0.dtd"
   xmlns:inkscape="http://www.inkscape.org/namespaces/inkscape"
   version="1.1"
   id="Layer_1"
   x="0px"
   y="0px"
   viewBox="0 0 100 100"
   xml:space="preserve"
   sodipodi:docname="audio.svg"
   width="100"
   height="100"
   inkscape:version="0.92.4 5da689c313, 2019-01-14"><metadata
   id="metadata1026"><rdf:RDF><cc:Work
       rdf:about=""><dc:format>image/svg+xml</dc:format><dc:type
         rdf:resource="http://purl.org/dc/dcmitype/StillImage" /><dc:title /></cc:Work></rdf:RDF></metadata><defs
   id="defs1024" /><sodipodi:namedview
   pagecolor="#ffffff"
   bordercolor="#666666"
   borderopacity="1"
   objecttolerance="10"
   gridtolerance="10"
   guidetolerance="10"
   inkscape:pageopacity="0"
   inkscape:pageshadow="2"
   inkscape:window-width="1366"
   inkscape:window-height="740"
   id="namedview1022"
   showgrid="false"
   inkscape:zoom="5.0938482"
   inkscape:cx="52.689178"
   inkscape:cy="8.6499555"
   inkscape:window-x="0"
   inkscape:window-y="0"
   inkscape:window-maximized="1"
   inkscape:current-layer="Layer_1" />

<path
   style="fill:#0066ff;stroke-width:0.27804795;fill-opacity:1"
   d="M 24.443466,10 C 21.990259,10 20,11.990271 20,14.444619 V 85.556501 C 20,88.010836 21.990259,90 24.443466,90 h 51.111956 c 2.454319,0 4.443466,-1.989164 4.443466,-4.443499 V 30.58203 L 58.576215,10 Z"
   id="path977"
   inkscape:connector-curvature="0" />
<path
   style="fill:#000000;stroke-width:0.27804795;opacity:0.2"
   d="M 80,30.58203 H 63.020793 c -2.454319,0 -4.443467,-1.990284 -4.443467,-4.444619 V 10 Z"
   id="path979"
   inkscape:connector-curvature="0" />


<g
   id="g991"
   transform="scale(0.21100073)">
</g>
<g
   id="g993"
   transform="scale(0.21100073)">
</g>
<g
   id="g995"
   transform="scale(0.21100073)">
</g>
<g
   id="g997"
   transform="scale(0.21100073)">
</g>
<g
   id="g999"
   transform="scale(0.21100073)">
</g>
<g
   id="g1001"
   transform="scale(0.21100073)">
</g>
<g
   id="g1003"
   transform="scale(0.21100073)">
</g>
<g
   id="g1005"
   transform="scale(0.21100073)">
</g>
<g
   id="g1007"
   transform="scale(0.21100073)">
</g>
<g
   id="g1009"
   transform="scale(0.21100073)">
</g>
<g
   id="g1011"
   transform="scale(0.21100073)">
</g>
<g
   id="g1013"
   transform="scale(0.21100073)">
</g>
<g
   id="g1015"
   transform="scale(0.21100073)">
</g>
<g
   id="g1017"
   transform="scale(0.21100073)">
</g>
<g
   id="g1019"
   transform="scale(0.21100073)">
</g>
<g
   id="g6"
   transform="matrix(0.09588055,0,0,0.09588055,27.5,29.999998)"
   style="fill:#ffffff"><g
     id="g4"
     style="fill:#ffffff"><path
       inkscape:connector-curvature="0"
       d="M 234.667,0 C 105.271,0 0,114.844 0,256 V 373.333 C 0,379.224 4.776,384 10.667,384 h 32 v 42.667 c 0,23.531 19.135,42.667 42.667,42.667 h 32 c 5.896,0 10.667,-4.771 10.667,-10.667 v -192 C 128.001,260.771 123.23,256 117.334,256 h -32 c -23.531,0 -42.667,19.135 -42.667,42.667 V 256 c 0,-117.635 86.135,-213.333 192,-213.333 105.865,0 192,95.698 192,213.333 v 42.667 C 426.667,275.135 407.531,256 384,256 h -32 c -5.896,0 -10.667,4.771 -10.667,10.667 v 192 c 0,5.896 4.771,10.667 10.667,10.667 h 32 c 23.531,0 42.667,-19.135 42.667,-42.667 V 384 h 32 c 5.891,0 10.667,-4.776 10.667,-10.667 V 256 C 469.333,114.844 364.063,0 234.667,0 Z"
       id="path2"
       style="fill:#ffffff" /></g></g></svg>