<?xml version="1.0" encoding="UTF-8" standalone="no"?>
<!-- Generator: Adobe Illustrator 19.0.0, SVG Export Plug-In . SVG Version: 6.00 Build 0)  -->

<svg
   xmlns:dc="http://purl.org/dc/elements/1.1/"
   xmlns:cc="http://creativecommons.org/ns#"
   xmlns:rdf="http://www.w3.org/1999/02/22-rdf-syntax-ns#"
   xmlns:svg="http://www.w3.org/2000/svg"
   xmlns="http://www.w3.org/2000/svg"
   xmlns:sodipodi="http://sodipodi.sourceforge.net/DTD/sodipodi-0.dtd"
   xmlns:inkscape="http://www.inkscape.org/namespaces/inkscape"
   version="1.1"
   id="Layer_1"
   x="0px"
   y="0px"
   viewBox="0 0 100 100"
   xml:space="preserve"
   sodipodi:docname="compress.svg"
   width="100"
   height="100"
   inkscape:version="0.92.4 5da689c313, 2019-01-14"><metadata
   id="metadata1026"><rdf:RDF><cc:Work
       rdf:about=""><dc:format>image/svg+xml</dc:format><dc:type
         rdf:resource="http://purl.org/dc/dcmitype/StillImage" /><dc:title /></cc:Work></rdf:RDF></metadata><defs
   id="defs1024" /><sodipodi:namedview
   pagecolor="#ffffff"
   bordercolor="#666666"
   borderopacity="1"
   objecttolerance="10"
   gridtolerance="10"
   guidetolerance="10"
   inkscape:pageopacity="0"
   inkscape:pageshadow="2"
   inkscape:window-width="1366"
   inkscape:window-height="740"
   id="namedview1022"
   showgrid="false"
   inkscape:zoom="4.4128312"
   inkscape:cx="25.954392"
   inkscape:cy="38.057554"
   inkscape:window-x="0"
   inkscape:window-y="0"
   inkscape:window-maximized="1"
   inkscape:current-layer="Layer_1" />

<path
   style="fill:#d4aa00;stroke-width:0.27804795;fill-opacity:1"
   d="M 24.443466,10 C 21.990259,10 20,11.990271 20,14.444619 V 85.556501 C 20,88.010836 21.990259,90 24.443466,90 h 51.111956 c 2.454319,0 4.443466,-1.989164 4.443466,-4.443499 V 30.58203 L 58.576215,10 Z"
   id="path977"
   inkscape:connector-curvature="0" />
<path
   style="fill:#000000;stroke-width:0.27804795;opacity:0.2"
   d="M 80,30.58203 H 63.020793 c -2.454319,0 -4.443467,-1.990284 -4.443467,-4.444619 V 10 Z"
   id="path979"
   inkscape:connector-curvature="0" />


<g
   id="g991"
   transform="scale(0.21100073)">
</g>
<g
   id="g993"
   transform="scale(0.21100073)">
</g>
<g
   id="g995"
   transform="scale(0.21100073)">
</g>
<g
   id="g997"
   transform="scale(0.21100073)">
</g>
<g
   id="g999"
   transform="scale(0.21100073)">
</g>
<g
   id="g1001"
   transform="scale(0.21100073)">
</g>
<g
   id="g1003"
   transform="scale(0.21100073)">
</g>
<g
   id="g1005"
   transform="scale(0.21100073)">
</g>
<g
   id="g1007"
   transform="scale(0.21100073)">
</g>
<g
   id="g1009"
   transform="scale(0.21100073)">
</g>
<g
   id="g1011"
   transform="scale(0.21100073)">
</g>
<g
   id="g1013"
   transform="scale(0.21100073)">
</g>
<g
   id="g1015"
   transform="scale(0.21100073)">
</g>
<g
   id="g1017"
   transform="scale(0.21100073)">
</g>
<g
   id="g1019"
   transform="scale(0.21100073)">
</g>
<g
   id="g883"
   transform="translate(6.130247)"><g
     style="fill:#ffffff"
     id="g30"
     transform="matrix(0.19478496,0,0,0.23450027,-14.237587,7.266896)"><rect
       id="rect14"
       height="22.628"
       width="26.075001"
       style="fill:#ffffff"
       y="171.77"
       x="234.14" /><rect
       id="rect16"
       height="22.628"
       width="26.075001"
       style="fill:#ffffff"
       y="194.423"
       x="208.07201" /><rect
       id="rect18"
       height="22.628"
       width="26.075001"
       style="fill:#ffffff"
       y="217.03799"
       x="234.14" /><rect
       id="rect20"
       height="22.628"
       width="26.075001"
       style="fill:#ffffff"
       y="239.672"
       x="208.07201" /><rect
       id="rect22"
       height="22.628"
       width="26.075001"
       style="fill:#ffffff"
       y="262.29999"
       x="234.14" /><rect
       id="rect24"
       height="22.628"
       width="26.075001"
       style="fill:#ffffff"
       y="284.909"
       x="208.07201" /><rect
       id="rect26"
       height="22.628"
       width="26.075001"
       style="fill:#ffffff"
       y="307.556"
       x="234.14" /><rect
       id="rect28"
       height="22.628"
       width="26.075001"
       style="fill:#ffffff"
       y="330.17801"
       x="208.07201" /></g><path
     id="path32"
     d="m 31.369753,28.058404 v 0 c -4.124961,0 -7.5,-4.0632 -7.5,-9.0292 v 0 c 0,-4.966024 3.375039,-9.029201 7.5,-9.029201 v 0 c 4.124961,0 7.5,4.063177 7.5,9.029201 v 0 c 0,4.966 -3.375039,9.0292 -7.5,9.0292 z"
     style="fill:#ffffff;stroke-width:0.21372207"
     inkscape:connector-curvature="0" /><path
     id="path34"
     d="m 33.802033,49.003253 h -4.86495 c -2.015051,0 -3.648711,-1.966518 -3.648711,-4.39266 V 23.522922 c 0,-2.425907 1.633467,-4.39266 3.648711,-4.39266 h 4.86495 c 2.015051,0 3.648714,1.966518 3.648714,4.39266 v 21.087672 c 0,2.425906 -1.633468,4.392659 -3.648714,4.392659 z"
     style="fill:#f2f2f2;stroke-width:0.21372207"
     inkscape:connector-curvature="0" /><path
     id="path36"
     d="m 28.937473,46.074829 c -0.670451,0 -1.216236,-0.656377 -1.216236,-1.464236 v -4.583529 c 0,-0.807859 0.545785,-1.464236 1.216236,-1.464236 h 4.86495 c 0.670451,0 1.216239,0.656377 1.216239,1.464236 v 4.58353 c 0,0.807858 -0.545788,1.464235 -1.216239,1.464235 z"
     style="fill:#d4aa00;fill-opacity:1;stroke-width:0.21372207"
     inkscape:connector-curvature="0" /><path
     id="path38"
     d="m 31.369753,25.618192 v 0 c -1.007623,0 -1.824356,-0.98327 -1.824356,-2.196329 v -8.785319 c 0,-1.213082 0.816733,-2.196329 1.824356,-2.196329 v 0 c 1.007623,0 1.824358,0.983247 1.824358,2.196329 v 8.785083 c 0,1.213059 -0.81693,2.196565 -1.824358,2.196565 z"
     style="fill:#d4aa00;fill-opacity:1;stroke-width:0.21372207"
     inkscape:connector-curvature="0" /></g></svg>