<?xml version="1.0" encoding="UTF-8" standalone="no"?>
<!-- Generator: Adobe Illustrator 19.0.0, SVG Export Plug-In . SVG Version: 6.00 Build 0)  -->

<svg
   xmlns:dc="http://purl.org/dc/elements/1.1/"
   xmlns:cc="http://creativecommons.org/ns#"
   xmlns:rdf="http://www.w3.org/1999/02/22-rdf-syntax-ns#"
   xmlns:svg="http://www.w3.org/2000/svg"
   xmlns="http://www.w3.org/2000/svg"
   xmlns:sodipodi="http://sodipodi.sourceforge.net/DTD/sodipodi-0.dtd"
   xmlns:inkscape="http://www.inkscape.org/namespaces/inkscape"
   version="1.1"
   id="Layer_1"
   x="0px"
   y="0px"
   viewBox="0 0 100 100"
   xml:space="preserve"
   sodipodi:docname="image.svg"
   width="100"
   height="100"
   inkscape:version="0.92.4 5da689c313, 2019-01-14"><metadata
   id="metadata1026"><rdf:RDF><cc:Work
       rdf:about=""><dc:format>image/svg+xml</dc:format><dc:type
         rdf:resource="http://purl.org/dc/dcmitype/StillImage" /><dc:title /></cc:Work></rdf:RDF></metadata><defs
   id="defs1024" /><sodipodi:namedview
   pagecolor="#ffffff"
   bordercolor="#666666"
   borderopacity="1"
   objecttolerance="10"
   gridtolerance="10"
   guidetolerance="10"
   inkscape:pageopacity="0"
   inkscape:pageshadow="2"
   inkscape:window-width="1366"
   inkscape:window-height="740"
   id="namedview1022"
   showgrid="false"
   inkscape:zoom="3.0628924"
   inkscape:cx="67.574353"
   inkscape:cy="12.066849"
   inkscape:window-x="0"
   inkscape:window-y="0"
   inkscape:window-maximized="1"
   inkscape:current-layer="Layer_1" />

<path
   style="fill:#2aff80;stroke-width:0.27804795;fill-opacity:1"
   d="M 24.443466,10 C 21.990259,10 20,11.990271 20,14.444619 V 85.556501 C 20,88.010836 21.990259,90 24.443466,90 h 51.111956 c 2.454319,0 4.443466,-1.989164 4.443466,-4.443499 V 30.58203 L 58.576215,10 Z"
   id="path977"
   inkscape:connector-curvature="0" />
<path
   style="fill:#000000;stroke-width:0.27804795;opacity:0.2"
   d="M 80,30.58203 H 63.020793 c -2.454319,0 -4.443467,-1.990284 -4.443467,-4.444619 V 10 Z"
   id="path979"
   inkscape:connector-curvature="0" />


<g
   id="g991"
   transform="scale(0.21100073)">
</g>
<g
   id="g993"
   transform="scale(0.21100073)">
</g>
<g
   id="g995"
   transform="scale(0.21100073)">
</g>
<g
   id="g997"
   transform="scale(0.21100073)">
</g>
<g
   id="g999"
   transform="scale(0.21100073)">
</g>
<g
   id="g1001"
   transform="scale(0.21100073)">
</g>
<g
   id="g1003"
   transform="scale(0.21100073)">
</g>
<g
   id="g1005"
   transform="scale(0.21100073)">
</g>
<g
   id="g1007"
   transform="scale(0.21100073)">
</g>
<g
   id="g1009"
   transform="scale(0.21100073)">
</g>
<g
   id="g1011"
   transform="scale(0.21100073)">
</g>
<g
   id="g1013"
   transform="scale(0.21100073)">
</g>
<g
   id="g1015"
   transform="scale(0.21100073)">
</g>
<g
   id="g1017"
   transform="scale(0.21100073)">
</g>
<g
   id="g1019"
   transform="scale(0.21100073)">
</g>
<g
   id="g867"
   transform="matrix(0.66176462,0,0,0.64516126,-12.272862,-29.036421)"
   style="fill:#ffffff"><path
     id="path2-3"
     d="m 77.808222,148.57471 c -4.53597,0 -8.57076,-2.88869 -10.03588,-7.18921 l -0.0991,-0.32406 c -0.34553,-1.13886 -0.49028,-2.0966 -0.49028,-3.05485 v -19.21458 l -6.87372,22.82157 c -0.88406,3.35672 1.13048,6.83677 4.51054,7.76406 l 43.813058,11.67035 c 0.54683,0.14087 1.09365,0.20847 1.63218,0.20847 2.82181,0 5.4003,-1.86284 6.123,-4.60807 l 2.55255,-8.07368 z m 0,0"
     inkscape:connector-curvature="0"
     style="fill:#ffffff;stroke-width:0.13245808" /><path
     id="path4"
     d="m 85.600242,118.98397 c 3.12532,0 5.66645,-2.52799 5.66645,-5.63651 0,-3.10851 -2.54113,-5.6365 -5.66645,-5.6365 -3.12532,0 -5.66697,2.52799 -5.66697,5.6365 0,3.10852 2.54165,5.63651 5.66697,5.63651 z m 0,0"
     inkscape:connector-curvature="0"
     style="fill:#ffffff;stroke-width:0.13245808" /><path
     id="path6"
     d="M 121.01738,99.256457 H 78.516392 c -3.90405,0 -7.08332,3.162183 -7.08332,7.045763 v 30.99948 c 0,3.88358 3.17927,7.04576 7.08332,7.04576 h 42.500988 c 3.90457,0 7.08385,-3.16218 7.08385,-7.04576 v -30.99948 c 0,-3.88358 -3.17928,-7.045763 -7.08385,-7.045763 z m -42.500988,5.636503 h 42.500988 c 0.78237,0 1.41688,0.6311 1.41688,1.40926 v 20.00616 l -8.95053,-10.38803 c -0.94942,-1.10739 -2.32375,-1.69926 -3.79977,-1.7328 -1.46772,0.008 -2.84464,0.65638 -3.78524,1.77821 l -10.523558,12.56306 -3.42831,-3.40161 c -1.93776,-1.92735 -5.09161,-1.92735 -7.02677,0 l -7.82004,7.77541 v -26.6004 c 0,-0.77816 0.63451,-1.40926 1.41635,-1.40926 z m 0,0"
     inkscape:connector-curvature="0"
     style="fill:#ffffff;stroke-width:0.13245808" /></g></svg>