<?xml version="1.0" encoding="UTF-8" standalone="no"?>
<!-- Generator: Adobe Illustrator 19.0.0, SVG Export Plug-In . SVG Version: 6.00 Build 0)  -->

<svg
   xmlns:dc="http://purl.org/dc/elements/1.1/"
   xmlns:cc="http://creativecommons.org/ns#"
   xmlns:rdf="http://www.w3.org/1999/02/22-rdf-syntax-ns#"
   xmlns:svg="http://www.w3.org/2000/svg"
   xmlns="http://www.w3.org/2000/svg"
   xmlns:sodipodi="http://sodipodi.sourceforge.net/DTD/sodipodi-0.dtd"
   xmlns:inkscape="http://www.inkscape.org/namespaces/inkscape"
   version="1.1"
   id="Layer_1"
   x="0px"
   y="0px"
   viewBox="0 0 100 100"
   xml:space="preserve"
   sodipodi:docname="excel.svg"
   width="100"
   height="100"
   inkscape:version="0.92.4 5da689c313, 2019-01-14"><metadata
   id="metadata1026"><rdf:RDF><cc:Work
       rdf:about=""><dc:format>image/svg+xml</dc:format><dc:type
         rdf:resource="http://purl.org/dc/dcmitype/StillImage" /><dc:title /></cc:Work></rdf:RDF></metadata><defs
   id="defs1024" /><sodipodi:namedview
   pagecolor="#ffffff"
   bordercolor="#666666"
   borderopacity="1"
   objecttolerance="10"
   gridtolerance="10"
   guidetolerance="10"
   inkscape:pageopacity="0"
   inkscape:pageshadow="2"
   inkscape:window-width="1366"
   inkscape:window-height="740"
   id="namedview1022"
   showgrid="false"
   inkscape:zoom="5.0938482"
   inkscape:cx="57.671456"
   inkscape:cy="46.600792"
   inkscape:window-x="0"
   inkscape:window-y="0"
   inkscape:window-maximized="1"
   inkscape:current-layer="Layer_1" />

<path
   style="fill:#2e7d32;stroke-width:0.27804795;fill-opacity:1"
   d="M 24.443466,10 C 21.990259,10 20,11.990271 20,14.444619 V 85.556501 C 20,88.010836 21.990259,90 24.443466,90 h 51.111956 c 2.454319,0 4.443466,-1.989164 4.443466,-4.443499 V 30.58203 L 58.576215,10 Z"
   id="path977"
   inkscape:connector-curvature="0" />
<path
   style="fill:#000000;stroke-width:0.27804795;opacity:0.2"
   d="M 80,30.58203 H 63.020793 c -2.454319,0 -4.443467,-1.990284 -4.443467,-4.444619 V 10 Z"
   id="path979"
   inkscape:connector-curvature="0" />


<g
   id="g991"
   transform="scale(0.21100073)">
</g>
<g
   id="g993"
   transform="scale(0.21100073)">
</g>
<g
   id="g995"
   transform="scale(0.21100073)">
</g>
<g
   id="g997"
   transform="scale(0.21100073)">
</g>
<g
   id="g999"
   transform="scale(0.21100073)">
</g>
<g
   id="g1001"
   transform="scale(0.21100073)">
</g>
<g
   id="g1003"
   transform="scale(0.21100073)">
</g>
<g
   id="g1005"
   transform="scale(0.21100073)">
</g>
<g
   id="g1007"
   transform="scale(0.21100073)">
</g>
<g
   id="g1009"
   transform="scale(0.21100073)">
</g>
<g
   id="g1011"
   transform="scale(0.21100073)">
</g>
<g
   id="g1013"
   transform="scale(0.21100073)">
</g>
<g
   id="g1015"
   transform="scale(0.21100073)">
</g>
<g
   id="g1017"
   transform="scale(0.21100073)">
</g>
<g
   id="g1019"
   transform="scale(0.21100073)">
</g>
<g
   id="g855"
   transform="matrix(0.8,0,0,0.77777778,10,16.666667)"><path
     id="path2"
     d="M 73.4375,69.000269 H 51.5625 C 50.7,69.000269 50,68.3283 50,67.500337 c 0,-0.827963 0,-29.17069 0,-29.998653 0,-0.827963 0.7,-1.499933 1.5625,-1.499933 h 21.875 c 0.8625,0 1.5625,0.67197 1.5625,1.499933 v 29.998653 c 0,0.827963 -0.7,1.499932 -1.5625,1.499932 z"
     style="fill:#f2f2f2;stroke-width:0.09568104"
     inkscape:connector-curvature="0" /><g
     style="fill:#2e7d32;fill-opacity:1"
     transform="matrix(0.09765625,0,0,0.09374579,25,28.501057)"
     id="g20"><path
       id="path4"
       d="m 336,176.011 h -64 c -8.832,0 -16,-7.168 -16,-16 0,-8.832 7.168,-16 16,-16 h 64 c 8.832,0 16,7.168 16,16 0,8.832 -7.168,16 -16,16 z"
       style="fill:#2e7d32;fill-opacity:1"
       inkscape:connector-curvature="0" /><path
       id="path6"
       d="m 336,240.011 h -64 c -8.832,0 -16,-7.168 -16,-16 0,-8.832 7.168,-16 16,-16 h 64 c 8.832,0 16,7.168 16,16 0,8.832 -7.168,16 -16,16 z"
       style="fill:#2e7d32;fill-opacity:1"
       inkscape:connector-curvature="0" /><path
       id="path8"
       d="m 336,304.011 h -64 c -8.832,0 -16,-7.168 -16,-16 0,-8.832 7.168,-16 16,-16 h 64 c 8.832,0 16,7.168 16,16 0,8.832 -7.168,16 -16,16 z"
       style="fill:#2e7d32;fill-opacity:1"
       inkscape:connector-curvature="0" /><path
       id="path10"
       d="m 336,368.011 h -64 c -8.832,0 -16,-7.168 -16,-16 0,-8.832 7.168,-16 16,-16 h 64 c 8.832,0 16,7.168 16,16 0,8.832 -7.168,16 -16,16 z"
       style="fill:#2e7d32;fill-opacity:1"
       inkscape:connector-curvature="0" /><path
       id="path12"
       d="m 432,176.011 h -32 c -8.832,0 -16,-7.168 -16,-16 0,-8.832 7.168,-16 16,-16 h 32 c 8.832,0 16,7.168 16,16 0,8.832 -7.168,16 -16,16 z"
       style="fill:#2e7d32;fill-opacity:1"
       inkscape:connector-curvature="0" /><path
       id="path14"
       d="m 432,240.011 h -32 c -8.832,0 -16,-7.168 -16,-16 0,-8.832 7.168,-16 16,-16 h 32 c 8.832,0 16,7.168 16,16 0,8.832 -7.168,16 -16,16 z"
       style="fill:#2e7d32;fill-opacity:1"
       inkscape:connector-curvature="0" /><path
       id="path16"
       d="m 432,304.011 h -32 c -8.832,0 -16,-7.168 -16,-16 0,-8.832 7.168,-16 16,-16 h 32 c 8.832,0 16,7.168 16,16 0,8.832 -7.168,16 -16,16 z"
       style="fill:#2e7d32;fill-opacity:1"
       inkscape:connector-curvature="0" /><path
       id="path18"
       d="m 432,368.011 h -32 c -8.832,0 -16,-7.168 -16,-16 0,-8.832 7.168,-16 16,-16 h 32 c 8.832,0 16,7.168 16,16 0,8.832 -7.168,16 -16,16 z"
       style="fill:#2e7d32;fill-opacity:1"
       inkscape:connector-curvature="0" /></g><path
     id="path22"
     d="M 52.559375,30.347005 C 52.203125,30.062018 51.725,29.939024 51.275,30.02902 l -25,4.499798 C 25.534375,34.660812 25,35.278784 25,36.001751 v 32.998518 c 0,0.719968 0.534375,1.34094 1.275,1.472934 l 25,4.499798 C 51.36875,74.991 51.465625,75 51.5625,75 51.925,75 52.278125,74.880005 52.559375,74.655016 52.91875,74.370028 53.125,73.944047 53.125,73.500067 V 31.501953 c 0,-0.446979 -0.20625,-0.86996 -0.565625,-1.154948 z"
     style="fill:#ffffff;stroke-width:0.09568104"
     inkscape:connector-curvature="0" /><path
     id="path24"
     d="M 46.4875,57.513785 41.546875,52.093029 46.54375,45.925306 C 47.075,45.271335 46.95,44.329377 46.271875,43.8194 45.59375,43.309423 44.6125,43.429418 44.078125,44.080389 L 39.45,49.792132 35.55,45.514324 c -0.571875,-0.629972 -1.559375,-0.686969 -2.203125,-0.140993 -0.65,0.545975 -0.715625,1.493932 -0.146875,2.114905 l 4.296875,4.715788 -4.35625,5.375758 c -0.53125,0.653971 -0.40625,1.595929 0.271875,2.105906 0.2875,0.21299 0.628125,0.314986 0.9625,0.314986 0.465625,0 0.925,-0.197991 1.234375,-0.578974 l 3.984375,-4.919779 4.54375,4.982776 c 0.309375,0.341984 0.740625,0.515977 1.175,0.515977 0.365625,0 0.73125,-0.122995 1.028125,-0.371984 0.65,-0.545975 0.715625,-1.493933 0.146875,-2.114905 z"
     style="fill:#2e7d32;fill-opacity:1;stroke-width:0.09568104"
     inkscape:connector-curvature="0" /></g></svg>