<?xml version="1.0" encoding="UTF-8" standalone="no"?>
<!-- Generator: Adobe Illustrator 19.0.0, SVG Export Plug-In . SVG Version: 6.00 Build 0)  -->

<svg
   xmlns:dc="http://purl.org/dc/elements/1.1/"
   xmlns:cc="http://creativecommons.org/ns#"
   xmlns:rdf="http://www.w3.org/1999/02/22-rdf-syntax-ns#"
   xmlns:svg="http://www.w3.org/2000/svg"
   xmlns="http://www.w3.org/2000/svg"
   xmlns:sodipodi="http://sodipodi.sourceforge.net/DTD/sodipodi-0.dtd"
   xmlns:inkscape="http://www.inkscape.org/namespaces/inkscape"
   version="1.1"
   id="Layer_1"
   x="0px"
   y="0px"
   viewBox="0 0 100 100"
   xml:space="preserve"
   sodipodi:docname="word (copy).svg"
   width="100"
   height="100"
   inkscape:version="0.92.4 5da689c313, 2019-01-14"><metadata
   id="metadata1026"><rdf:RDF><cc:Work
       rdf:about=""><dc:format>image/svg+xml</dc:format><dc:type
         rdf:resource="http://purl.org/dc/dcmitype/StillImage" /><dc:title /></cc:Work></rdf:RDF></metadata><defs
   id="defs1024" /><sodipodi:namedview
   pagecolor="#ffffff"
   bordercolor="#666666"
   borderopacity="1"
   objecttolerance="10"
   gridtolerance="10"
   guidetolerance="10"
   inkscape:pageopacity="0"
   inkscape:pageshadow="2"
   inkscape:window-width="1366"
   inkscape:window-height="740"
   id="namedview1022"
   showgrid="false"
   inkscape:zoom="5.0938482"
   inkscape:cx="31.657517"
   inkscape:cy="46.600792"
   inkscape:window-x="0"
   inkscape:window-y="0"
   inkscape:window-maximized="1"
   inkscape:current-layer="Layer_1" />

<path
   style="fill:#ef6c00;stroke-width:0.27804795;fill-opacity:1"
   d="M 24.443466,10 C 21.990259,10 20,11.990271 20,14.444619 V 85.556501 C 20,88.010836 21.990259,90 24.443466,90 h 51.111956 c 2.454319,0 4.443466,-1.989164 4.443466,-4.443499 V 30.58203 L 58.576215,10 Z"
   id="path977"
   inkscape:connector-curvature="0" />
<path
   style="fill:#000000;stroke-width:0.27804795;opacity:0.2"
   d="M 80,30.58203 H 63.020793 c -2.454319,0 -4.443467,-1.990284 -4.443467,-4.444619 V 10 Z"
   id="path979"
   inkscape:connector-curvature="0" />


<g
   id="g991"
   transform="scale(0.21100073)">
</g>
<g
   id="g993"
   transform="scale(0.21100073)">
</g>
<g
   id="g995"
   transform="scale(0.21100073)">
</g>
<g
   id="g997"
   transform="scale(0.21100073)">
</g>
<g
   id="g999"
   transform="scale(0.21100073)">
</g>
<g
   id="g1001"
   transform="scale(0.21100073)">
</g>
<g
   id="g1003"
   transform="scale(0.21100073)">
</g>
<g
   id="g1005"
   transform="scale(0.21100073)">
</g>
<g
   id="g1007"
   transform="scale(0.21100073)">
</g>
<g
   id="g1009"
   transform="scale(0.21100073)">
</g>
<g
   id="g1011"
   transform="scale(0.21100073)">
</g>
<g
   id="g1013"
   transform="scale(0.21100073)">
</g>
<g
   id="g1015"
   transform="scale(0.21100073)">
</g>
<g
   id="g1017"
   transform="scale(0.21100073)">
</g>
<g
   id="g1019"
   transform="scale(0.21100073)">
</g>
<path
   inkscape:connector-curvature="0"
   style="fill:#eceff1;stroke-width:0.07547422"
   d="m 68.75,44.66803 h -17.5 c -0.69,0 -1.25,0.522643 -1.25,1.166614 v 23.332285 c 0,0.643971 0.56,1.166615 1.25,1.166615 h 17.5 c 0.69,0 1.25,-0.522644 1.25,-1.166615 V 45.834644 C 70,45.190673 69.44,44.66803 68.75,44.66803 Z"
   id="path2" /><g
   id="g10"
   transform="matrix(0.078125,0,0,0.07291339,30,38.834157)"><path
     inkscape:connector-curvature="0"
     style="fill:#f57c00"
     d="M 432,368.011 H 272 c -8.832,0 -16,-7.168 -16,-16 0,-8.832 7.168,-16 16,-16 h 160 c 8.832,0 16,7.168 16,16 0,8.832 -7.168,16 -16,16 z"
     id="path4" /><path
     inkscape:connector-curvature="0"
     style="fill:#f57c00"
     d="m 352,144.011 c -44.192,0 -80,35.808 -80,80 0,44.192 35.808,80 80,80 44.192,0 80,-35.808 80,-80 h -80 z"
     id="path6" /><path
     inkscape:connector-curvature="0"
     style="fill:#f57c00"
     d="m 384,112.011 v 80 h 80 c 0,-44.192 -35.808,-80 -80,-80 z"
     id="path8" /></g><path
   inkscape:connector-curvature="0"
   style="fill:#ffffff;stroke-width:0.07547422"
   d="M 52.0475,40.269895 C 51.7625,40.048238 51.38,39.952575 51.02,40.022572 l -20,3.499843 C 30.4275,43.625077 30,44.105722 30,44.66803 v 25.665514 c 0,0.559974 0.4275,1.042953 1.02,1.145615 l 20,3.499842 c 0.075,0.014 0.1525,0.021 0.23,0.021 0.29,0 0.5725,-0.09333 0.7975,-0.268321 C 52.335,74.510023 52.5,74.178704 52.5,73.833386 V 41.168188 c 0,-0.347652 -0.165,-0.676637 -0.4525,-0.898293 z"
   id="path12" /><path
   inkscape:connector-curvature="0"
   style="fill:#ef6c00;stroke-width:0.07547422;fill-opacity:1"
   d="m 38.75,65.667087 c -0.69,0 -1.25,-0.522644 -1.25,-1.166615 V 52.83433 c 0,-0.643971 0.56,-1.166614 1.25,-1.166614 h 3.75 c 2.7575,0 5,2.092906 5,4.666457 0,2.573551 -2.2425,4.666457 -5,4.666457 H 40 v 3.499842 c 0,0.643971 -0.56,1.166615 -1.25,1.166615 z M 40,58.667401 h 2.5 c 1.3775,0 2.5,-1.047619 2.5,-2.333228 0,-1.285609 -1.1225,-2.333229 -2.5,-2.333229 H 40 Z"
   id="path14" /><g
   id="g16"
   transform="matrix(0.078125,0,0,0.07291339,30,38.834157)" /><g
   id="g18"
   transform="matrix(0.078125,0,0,0.07291339,30,38.834157)" /><g
   id="g20"
   transform="matrix(0.078125,0,0,0.07291339,30,38.834157)" /><g
   id="g22"
   transform="matrix(0.078125,0,0,0.07291339,30,38.834157)" /><g
   id="g24"
   transform="matrix(0.078125,0,0,0.07291339,30,38.834157)" /><g
   id="g26"
   transform="matrix(0.078125,0,0,0.07291339,30,38.834157)" /><g
   id="g28"
   transform="matrix(0.078125,0,0,0.07291339,30,38.834157)" /><g
   id="g30"
   transform="matrix(0.078125,0,0,0.07291339,30,38.834157)" /><g
   id="g32"
   transform="matrix(0.078125,0,0,0.07291339,30,38.834157)" /><g
   id="g34"
   transform="matrix(0.078125,0,0,0.07291339,30,38.834157)" /><g
   id="g36"
   transform="matrix(0.078125,0,0,0.07291339,30,38.834157)" /><g
   id="g38"
   transform="matrix(0.078125,0,0,0.07291339,30,38.834157)" /><g
   id="g40"
   transform="matrix(0.078125,0,0,0.07291339,30,38.834157)" /><g
   id="g42"
   transform="matrix(0.078125,0,0,0.07291339,30,38.834157)" /><g
   id="g44"
   transform="matrix(0.078125,0,0,0.07291339,30,38.834157)" /></svg>