<?xml version="1.0" encoding="UTF-8" standalone="no"?>
<!-- Generator: Adobe Illustrator 19.0.0, SVG Export Plug-In . SVG Version: 6.00 Build 0)  -->

<svg
   xmlns:dc="http://purl.org/dc/elements/1.1/"
   xmlns:cc="http://creativecommons.org/ns#"
   xmlns:rdf="http://www.w3.org/1999/02/22-rdf-syntax-ns#"
   xmlns:svg="http://www.w3.org/2000/svg"
   xmlns="http://www.w3.org/2000/svg"
   xmlns:sodipodi="http://sodipodi.sourceforge.net/DTD/sodipodi-0.dtd"
   xmlns:inkscape="http://www.inkscape.org/namespaces/inkscape"
   version="1.1"
   id="Layer_1"
   x="0px"
   y="0px"
   viewBox="0 0 100 100"
   xml:space="preserve"
   sodipodi:docname="excel (copy).svg"
   width="100"
   height="100"
   inkscape:version="0.92.4 5da689c313, 2019-01-14"><metadata
   id="metadata1026"><rdf:RDF><cc:Work
       rdf:about=""><dc:format>image/svg+xml</dc:format><dc:type
         rdf:resource="http://purl.org/dc/dcmitype/StillImage" /><dc:title /></cc:Work></rdf:RDF></metadata><defs
   id="defs1024" /><sodipodi:namedview
   pagecolor="#ffffff"
   bordercolor="#666666"
   borderopacity="1"
   objecttolerance="10"
   gridtolerance="10"
   guidetolerance="10"
   inkscape:pageopacity="0"
   inkscape:pageshadow="2"
   inkscape:window-width="1366"
   inkscape:window-height="740"
   id="namedview1022"
   showgrid="false"
   inkscape:zoom="5.0938482"
   inkscape:cx="21.745768"
   inkscape:cy="46.600792"
   inkscape:window-x="0"
   inkscape:window-y="0"
   inkscape:window-maximized="1"
   inkscape:current-layer="Layer_1" />

<path
   style="fill:#1565c0;stroke-width:0.27804795;fill-opacity:1"
   d="M 24.443466,10 C 21.990259,10 20,11.990271 20,14.444619 V 85.556501 C 20,88.010836 21.990259,90 24.443466,90 h 51.111956 c 2.454319,0 4.443466,-1.989164 4.443466,-4.443499 V 30.58203 L 58.576215,10 Z"
   id="path977"
   inkscape:connector-curvature="0" />
<path
   style="fill:#000000;stroke-width:0.27804795;opacity:0.2"
   d="M 80,30.58203 H 63.020793 c -2.454319,0 -4.443467,-1.990284 -4.443467,-4.444619 V 10 Z"
   id="path979"
   inkscape:connector-curvature="0" />


<g
   id="g991"
   transform="scale(0.21100073)">
</g>
<g
   id="g993"
   transform="scale(0.21100073)">
</g>
<g
   id="g995"
   transform="scale(0.21100073)">
</g>
<g
   id="g997"
   transform="scale(0.21100073)">
</g>
<g
   id="g999"
   transform="scale(0.21100073)">
</g>
<g
   id="g1001"
   transform="scale(0.21100073)">
</g>
<g
   id="g1003"
   transform="scale(0.21100073)">
</g>
<g
   id="g1005"
   transform="scale(0.21100073)">
</g>
<g
   id="g1007"
   transform="scale(0.21100073)">
</g>
<g
   id="g1009"
   transform="scale(0.21100073)">
</g>
<g
   id="g1011"
   transform="scale(0.21100073)">
</g>
<g
   id="g1013"
   transform="scale(0.21100073)">
</g>
<g
   id="g1015"
   transform="scale(0.21100073)">
</g>
<g
   id="g1017"
   transform="scale(0.21100073)">
</g>
<g
   id="g1019"
   transform="scale(0.21100073)">
</g>
<path
   style="fill:#eceff1;stroke-width:0.07547525"
   d="m 68.75,70.33342 h -17.5 c -0.69,0 -1.25,-0.52033 -1.25,-1.16665 0,-0.64632 0,-22.688931 0,-23.332921 0,-0.64399 0.56,-1.16665 1.25,-1.16665 h 17.5 c 0.69,0 1.25,0.52266 1.25,1.16665 V 69.16677 c 0,0.64632 -0.56,1.16665 -1.25,1.16665 z"
   id="path2-3"
   inkscape:connector-curvature="0" /><g
   id="g12"
   transform="matrix(0.078125,0,0,0.07291538,30,38.833679)"><path
     style="fill:#1976d2"
     d="M 432,176.004 H 272 c -8.832,0 -16,-7.136 -16,-16 0,-8.864 7.168,-16 16,-16 h 160 c 8.832,0 16,7.168 16,16 0,8.832 -7.168,16 -16,16 z"
     id="path4-6"
     inkscape:connector-curvature="0" /><path
     style="fill:#1976d2"
     d="M 432,240.004 H 272 c -8.832,0 -16,-7.136 -16,-16 0,-8.864 7.168,-16 16,-16 h 160 c 8.832,0 16,7.168 16,16 0,8.832 -7.168,16 -16,16 z"
     id="path6-7"
     inkscape:connector-curvature="0" /><path
     style="fill:#1976d2"
     d="M 432,304.004 H 272 c -8.832,0 -16,-7.136 -16,-16 0,-8.864 7.168,-16 16,-16 h 160 c 8.832,0 16,7.168 16,16 0,8.832 -7.168,16 -16,16 z"
     id="path8-5"
     inkscape:connector-curvature="0" /><path
     style="fill:#1976d2"
     d="M 432,368.004 H 272 c -8.832,0 -16,-7.136 -16,-16 0,-8.864 7.168,-16 16,-16 h 160 c 8.832,0 16,7.168 16,16 0,8.832 -7.168,16 -16,16 z"
     id="path10-3"
     inkscape:connector-curvature="0" /></g><path
   style="fill:#ffffff;stroke-width:0.07547525"
   d="m 52.0475,40.271279 c -0.285,-0.22399 -0.6675,-0.31733 -1.0275,-0.24966 l -20,3.49994 C 30.43,43.624219 30,44.107209 30,44.667199 V 70.33342 c 0,0.55999 0.4275,1.04298 1.02,1.14564 l 20,3.49994 C 51.0975,74.993 51.1725,75 51.25,75 51.54,75 51.8225,74.9067 52.0475,74.73167 52.335,74.51001 52.5,74.18101 52.5,73.83335 V 41.167269 c 0,-0.34766 -0.165,-0.67433 -0.4525,-0.89599 z"
   id="path14-5"
   inkscape:connector-curvature="0" /><path
   style="fill:#1565c0;stroke-width:0.07547525;fill-opacity:1"
   d="m 46.2425,63.4642 c -0.065,0.53433 -0.515,0.96132 -1.0875,1.02665 -0.0525,0.007 -0.1025,0.009 -0.155,0.009 -0.515,0 -0.985,-0.29867 -1.17,-0.75599 l -2.58,-6.42122 -2.58,6.42122 c -0.2,0.49932 -0.725,0.80499 -1.305,0.74899 -0.5675,-0.056 -1.0225,-0.46666 -1.1025,-0.99632 l -1.25,-8.16652 c -0.0975,-0.63466 0.3775,-1.22731 1.06,-1.31831 0.685,-0.0933 1.3175,0.35233 1.415,0.98931 l 0.5575,3.64927 2.0325,-5.06091 c 0.365,-0.90998 1.975,-0.90998 2.3425,0 l 1.915,4.76458 0.6725,-5.65123 c 0.0775,-0.63932 0.7125,-1.09898 1.38,-1.03131 0.6875,0.0747 1.18,0.65098 1.105,1.29031 z"
   id="path16-6"
   inkscape:connector-curvature="0" /></svg>