<?xml version="1.0" encoding="UTF-8" standalone="no"?>
<!-- Generator: Adobe Illustrator 19.0.0, SVG Export Plug-In . SVG Version: 6.00 Build 0)  -->

<svg
   xmlns:dc="http://purl.org/dc/elements/1.1/"
   xmlns:cc="http://creativecommons.org/ns#"
   xmlns:rdf="http://www.w3.org/1999/02/22-rdf-syntax-ns#"
   xmlns:svg="http://www.w3.org/2000/svg"
   xmlns="http://www.w3.org/2000/svg"
   xmlns:sodipodi="http://sodipodi.sourceforge.net/DTD/sodipodi-0.dtd"
   xmlns:inkscape="http://www.inkscape.org/namespaces/inkscape"
   version="1.1"
   id="Layer_1"
   x="0px"
   y="0px"
   viewBox="0 0 100 100"
   xml:space="preserve"
   sodipodi:docname="pdf.svg"
   width="100"
   height="100"
   inkscape:version="0.92.4 5da689c313, 2019-01-14"><metadata
   id="metadata1026"><rdf:RDF><cc:Work
       rdf:about=""><dc:format>image/svg+xml</dc:format><dc:type
         rdf:resource="http://purl.org/dc/dcmitype/StillImage" /><dc:title /></cc:Work></rdf:RDF></metadata><defs
   id="defs1024" /><sodipodi:namedview
   pagecolor="#ffffff"
   bordercolor="#666666"
   borderopacity="1"
   objecttolerance="10"
   gridtolerance="10"
   guidetolerance="10"
   inkscape:pageopacity="0"
   inkscape:pageshadow="2"
   inkscape:window-width="1366"
   inkscape:window-height="740"
   id="namedview1022"
   showgrid="false"
   inkscape:zoom="5.0938482"
   inkscape:cx="37.697434"
   inkscape:cy="46.600792"
   inkscape:window-x="0"
   inkscape:window-y="0"
   inkscape:window-maximized="1"
   inkscape:current-layer="Layer_1" />

<path
   style="fill:#ff2a2a;stroke-width:0.27804795;fill-opacity:1"
   d="M 24.443466,10 C 21.990259,10 20,11.990271 20,14.444619 V 85.556501 C 20,88.010836 21.990259,90 24.443466,90 h 51.111956 c 2.454319,0 4.443466,-1.989164 4.443466,-4.443499 V 30.58203 L 58.576215,10 Z"
   id="path977"
   inkscape:connector-curvature="0" />
<path
   style="fill:#000000;stroke-width:0.27804795;opacity:0.2"
   d="M 80,30.58203 H 63.020793 c -2.454319,0 -4.443467,-1.990284 -4.443467,-4.444619 V 10 Z"
   id="path979"
   inkscape:connector-curvature="0" />


<g
   id="g991"
   transform="scale(0.21100073)">
</g>
<g
   id="g993"
   transform="scale(0.21100073)">
</g>
<g
   id="g995"
   transform="scale(0.21100073)">
</g>
<g
   id="g997"
   transform="scale(0.21100073)">
</g>
<g
   id="g999"
   transform="scale(0.21100073)">
</g>
<g
   id="g1001"
   transform="scale(0.21100073)">
</g>
<g
   id="g1003"
   transform="scale(0.21100073)">
</g>
<g
   id="g1005"
   transform="scale(0.21100073)">
</g>
<g
   id="g1007"
   transform="scale(0.21100073)">
</g>
<g
   id="g1009"
   transform="scale(0.21100073)">
</g>
<g
   id="g1011"
   transform="scale(0.21100073)">
</g>
<g
   id="g1013"
   transform="scale(0.21100073)">
</g>
<g
   id="g1015"
   transform="scale(0.21100073)">
</g>
<g
   id="g1017"
   transform="scale(0.21100073)">
</g>
<g
   id="g1019"
   transform="scale(0.21100073)">
</g>
<path
   style="fill:#ffffff;stroke-width:0.15276912"
   d="m 34.174113,75 c -1.283986,0 -2.292834,-0.738674 -2.751434,-1.200356 -1.559109,-1.846606 -1.559109,-3.41623 -1.283981,-4.431887 0.183469,-0.923373 0.733724,-1.754322 1.55911,-2.308288 1.192319,-0.923382 4.493853,-3.231523 9.354649,-5.262837 2.567963,-4.708861 4.31054,-8.494498 5.502702,-11.541312 -2.017706,-3.877912 -2.751425,-7.017158 -2.934748,-8.586782 -0.183463,-1.292631 -0.09161,-2.585271 0.275128,-3.693204 0.917201,-2.954539 2.934749,-3.046971 3.760134,-2.954539 0.183472,0 3.39335,0.461691 3.943598,5.078129 0,0.184699 0.366794,3.139238 -2.109364,10.063963 1.559116,2.677556 3.760135,5.632243 7.153632,8.494507 3.209877,0 6.69503,0.276983 10.363497,1.200365 0.825386,0.184699 1.559115,0.646242 2.109363,1.292631 0.9172,1.015657 1.100514,2.308298 0.641914,3.600938 v 0 c 0,0 -0.183462,0.646242 -0.73372,1.29264 -1.008857,1.384907 -2.934748,1.846598 -4.493853,1.015648 -3.485005,-1.846597 -6.419901,-3.785479 -8.804402,-5.816793 -4.860787,0.184707 -9.171179,1.29264 -12.656333,2.677556 -1.559105,2.862254 -3.484996,6.001501 -5.686173,9.510007 -0.4586,0.646241 -1.008857,1.200355 -1.742577,1.477339 v 0 c -0.641766,-1.48e-4 -1.100366,0.09224 -1.467152,0.09224 z m 4.493853,-9.325447 c -2.751434,1.477339 -4.677325,2.769979 -5.411054,3.416221 -0.275128,0.276983 -0.550257,0.553966 -0.550257,0.830949 -0.183462,0.646242 0.0917,1.292641 0.733729,2.031315 0,0 0.550257,0.461691 1.100514,0.276983 v 0 c 0.183463,-0.09224 0.366786,-0.184708 0.458591,-0.461691 1.283986,-2.12359 2.567963,-4.154895 3.668477,-6.093777 z m 21.368912,-4.431887 c 1.650771,1.107932 3.485005,2.308297 5.50271,3.323954 0.366785,0.184708 0.825386,0.09224 1.100514,-0.276983 0.275129,-0.369258 0.366786,-0.646241 0.366786,-0.646241 0.183471,-0.461691 0.183471,-0.646242 -0.0917,-0.923382 -0.183475,-0.184708 -0.458604,-0.369259 -0.825389,-0.461691 -2.017557,-0.553966 -4.035262,-0.83095 -6.052967,-1.015657 z M 48.114273,53.025308 c -0.9172,2.123581 -2.017705,4.524154 -3.485005,7.294133 2.476306,-0.738665 5.135925,-1.384916 8.070674,-1.66189 -1.834243,-1.939039 -3.393349,-3.878069 -4.585669,-5.632243 z M 47.197231,37.513643 c -0.366786,0 -0.641915,0.369259 -0.917191,1.200365 -0.275129,0.738674 -0.275129,1.569615 -0.183472,2.492996 0.183472,1.107933 0.550257,2.95454 1.559105,5.355112 1.375643,-4.431887 1.19232,-6.278493 1.19232,-6.278493 -0.275129,-2.492996 -1.559105,-2.76998 -1.650762,-2.76998 z"
   id="path6"
   inkscape:connector-curvature="0" /></svg>