<?xml version="1.0" encoding="UTF-8" standalone="no"?>
<!-- Generator: Adobe Illustrator 19.0.0, SVG Export Plug-In . SVG Version: 6.00 Build 0)  -->

<svg
   xmlns:dc="http://purl.org/dc/elements/1.1/"
   xmlns:cc="http://creativecommons.org/ns#"
   xmlns:rdf="http://www.w3.org/1999/02/22-rdf-syntax-ns#"
   xmlns:svg="http://www.w3.org/2000/svg"
   xmlns="http://www.w3.org/2000/svg"
   xmlns:sodipodi="http://sodipodi.sourceforge.net/DTD/sodipodi-0.dtd"
   xmlns:inkscape="http://www.inkscape.org/namespaces/inkscape"
   version="1.1"
   id="Layer_1"
   x="0px"
   y="0px"
   viewBox="0 0 100 100"
   xml:space="preserve"
   sodipodi:docname="rar.svg"
   width="100"
   height="100"
   inkscape:version="0.92.4 5da689c313, 2019-01-14"><metadata
   id="metadata1026"><rdf:RDF><cc:Work
       rdf:about=""><dc:format>image/svg+xml</dc:format><dc:type
         rdf:resource="http://purl.org/dc/dcmitype/StillImage" /><dc:title /></cc:Work></rdf:RDF></metadata><defs
   id="defs1024">














</defs><sodipodi:namedview
   pagecolor="#ffffff"
   bordercolor="#666666"
   borderopacity="1"
   objecttolerance="10"
   gridtolerance="10"
   guidetolerance="10"
   inkscape:pageopacity="0"
   inkscape:pageshadow="2"
   inkscape:window-width="1366"
   inkscape:window-height="740"
   id="namedview1022"
   showgrid="false"
   inkscape:zoom="19.212414"
   inkscape:cx="51.925379"
   inkscape:cy="40.048308"
   inkscape:window-x="0"
   inkscape:window-y="0"
   inkscape:window-maximized="1"
   inkscape:current-layer="Layer_1" />

<path
   style="fill:#800080;fill-opacity:1;stroke-width:0.27805051"
   d="m 24.755846,11.457391 c -2.453252,0 -4.443548,1.990271 -4.443548,4.444619 v 71.111882 c 0,2.454335 1.990296,4.443499 4.443548,4.443499 H 75.86875 c 2.454364,0 4.443548,-1.989164 4.443548,-4.443499 V 32.039421 l -21.42307,-20.58203 z"
   id="path977"
   inkscape:connector-curvature="0" />
<path
   style="fill:#000000;stroke-width:0.27804795;opacity:0.2"
   d="M 80,30.58203 H 63.020793 c -2.454319,0 -4.443467,-1.990284 -4.443467,-4.444619 V 10 Z"
   id="path979"
   inkscape:connector-curvature="0" />

















<path
   style="fill:#ffffff;stroke-width:0.04449113"
   id="path4"
   d="m 71.420407,56.695779 c 1.138747,0 1.079055,-0.879431 1.079055,-2.000273 v -4.29369 c 0,-2.746064 -0.146935,-3.233199 -1.910157,-4.767892 l -5.845263,-5.095522 c -0.739268,-0.64664 -0.844877,-0.530245 -1.832098,-0.530245 h -34.40578 c -0.890795,0 -1.386701,0.375051 -0.647433,1.172574 l 6.189642,5.811137 c 1.207623,1.133776 1.43721,1.444163 1.478535,2.547762 0.03214,0.827699 0.0092,1.659709 0.0092,2.491719 0,0.909607 0,1.823525 0,2.733132 0,0.513001 -0.08724,1.405364 -1.405068,0.172437 l -5.606493,-5.26796 c -0.229587,-0.215547 -0.596924,-0.215547 -0.826511,0 -0.229586,0.215546 -0.229586,0.564732 0,0.780279 l 5.413642,5.08259 c 0.528048,0.495757 1.106605,1.000136 1.593328,1.534692 0.53264,0.586287 0.757634,1.120842 0.808143,1.879567 0.01377,0.228479 0.02296,0.487135 0.02296,0.780278 0.0046,0.59922 -0.0092,1.202751 -0.0092,1.80197 0,0.763036 0.0046,1.52176 0.0092,2.284795 0.0046,0.46127 -0.110202,1.056178 -0.863244,0.400917 -0.0046,-0.0043 -0.0092,-0.0086 -0.01378,-0.01293 -0.0046,-0.0043 -0.0092,-0.0086 -0.01378,-0.01293 l -0.02296,-0.02156 -6.051891,-5.681809 c -0.252545,-0.237102 -0.633658,-0.362119 -0.927528,-0.05173 -0.192853,0.202613 -0.174486,0.569043 0.04133,0.775967 0.0046,0.0043 0.0046,0.0086 0.0092,0.0086 l 5.578943,5.237784 c 0.29387,0.2759 0.583149,0.551799 0.881611,0.827699 0.0046,0.0043 0.0092,0.0086 0.01378,0.01293 0.0046,0.0043 0.0092,0.0086 0.01378,0.01293 0,0 0.0046,0.0043 0.0046,0.0043 0.0046,0.0043 0.0046,0.0043 0.0092,0.0086 0.844877,0.797523 1.203032,1.159641 1.281091,1.987341 0.06888,0.706993 0.05051,1.487271 0.0551,2.276172 0.0092,0.87512 0.0092,1.745928 -0.0046,2.58656 -0.0092,0.577665 -0.05051,1.146708 -1.051504,0.202614 l -5.950873,-5.595591 c -0.229587,-0.215547 -0.596924,-0.215547 -0.826511,0 -0.229586,0.215546 -0.229586,0.564732 0,0.775968 l 5.955465,5.595591 c 0.247953,0.23279 0.404072,0.392295 0.523457,0.517312 0.220402,0.228479 0.353562,0.366429 0.583148,0.504379 0.996404,0.732859 1.721896,0.788901 2.947887,0.827699 10.845649,0 21.686707,0 32.532357,0 h 0.0046 c 0.615291,0 1.170889,-0.2759 1.565777,-0.715615 0.26632,-0.293143 0.459173,-0.668194 0.551007,-1.077733 0.09183,-0.310387 0.137752,-0.642329 0.137752,-0.935473 v -4.685984 c 0,-1.15533 -0.188261,-2.047693 -1.193848,-2.047693 0.973445,0 1.193848,-0.931161 1.193848,-1.840768 v -5.17312 c 0,-0.944094 -0.06888,-1.827835 -1.079055,-1.827835 z m -0.670392,-9.354725 c 0.07347,0.09915 0.114793,0.18537 0.137752,0.258656 -0.01837,-0.06898 -0.06428,-0.155194 -0.137752,-0.258656 -0.18826,-0.219858 -0.449989,-0.465581 -0.808143,-0.780279 0.358154,0.310387 0.642841,0.551799 0.808143,0.780279 z m -0.877019,-0.836321 c 0,0 0,0 0,0 0,-0.0043 0,-0.0043 0,0 0,-0.0043 0,-0.0043 0,0 z m -30.750769,-4.444572 4.577948,4.298 h -4.908552 l -4.577948,-4.298 z m -3.076454,5.345557 c -0.289279,-0.310387 -0.642841,-0.69406 -1.166298,-1.185507 l -5.473334,-5.142943 h 0.0046 l 5.468742,5.134321 c 0.0092,0.0086 0.01837,0.01293 0.02296,0.02156 0.0092,0.0086 0.01378,0.01724 0.02296,0.02155 0,0 0,0 0,0 0.0092,0.0086 0.01837,0.01724 0.02296,0.02155 0.0092,0.0043 0.01377,0.01293 0.02296,0.02156 0,0 0,0 0.0046,0.0043 0.472948,0.452648 0.817327,0.793212 1.069872,1.103599 0,0 0,0 0,0 z m 4.757025,25.861287 H 39.60895 v -4.858422 h 1.193848 z m 0,-9.022783 H 39.60895 v -4.858421 h 1.193848 z m 0,-8.850345 H 39.60895 v -4.858422 h 1.193848 z m 2.254536,17.873128 h -1.193848 v -4.858422 h 1.193848 z m 0,-9.022783 h -1.193848 v -4.858421 h 1.193848 z m 0,-8.850345 h -1.193848 v -4.858422 h 1.193848 z m 27.192183,18.506835 c 0.252545,0 0.495907,-0.125017 0.674984,-0.32332 -0.183669,0.198303 -0.422439,0.32332 -0.674984,0.32332 z m 0.0092,-7.81141 c 0,0 0,0 0,0 0.128568,0.0043 0.247953,0.03449 0.362746,0.09053 -0.114793,-0.05604 -0.23877,-0.09053 -0.362746,-0.09053 z m 0.624474,-10.130693 c -0.05051,0.04311 -0.110201,0.06897 -0.165302,0.103462 0.07806,-0.04742 0.156119,-0.09053 0.220403,-0.155193 v 0 c -0.01837,0.02155 -0.03673,0.0388 -0.0551,0.05173 z m -0.362746,-6.79403 c -0.08724,-0.03018 -0.179077,-0.06035 -0.275503,-0.06035 h -0.0046 -13.444565 c 0.146935,0.935472 0.151527,2.362391 0.151527,4.914463 v 20.92958 h -4.495297 v -21.06753 c 0,-3.078006 0,-4.164361 -0.23877,-4.776513 h -14.500661 -0.0046 c -0.26632,0 -0.509682,0.116395 -0.688759,0.301765 -0.146935,0.150882 -0.252545,0.349185 -0.29387,0.573354 -0.01837,-0.763035 -0.0046,-1.922676 -0.252545,-2.202887 0.321421,0.202614 0.63825,0.232791 1.102014,0.237101 0.01377,0 0.02755,0 0.04592,0 0,0 0,0 0,0 0.03214,0 0.05969,0 0.09183,0 h 0.0046 0.344379 0.05051 0.05051 0.05051 13.063452 L 42.80939,40.059891 h 5.427416 l 6.988603,6.556929 v 0 c 0.58774,0.5518 0.968853,0.918229 1.22599,1.388121 h 12.650197 c 0.243361,-0.0043 0.495906,-0.0043 0.734675,-0.0043 0.146935,0 0.284687,0 0.413255,-0.0086 0.05969,-0.0043 0.10561,-0.01724 0.160711,-0.02155 0.09643,-0.01293 0.192852,-0.02587 0.26632,-0.05173 0.04592,-0.01724 0.06428,-0.04311 0.09643,-0.06466 0.05969,-0.04311 0.123976,-0.08191 0.128568,-0.150883 0.252545,0.625086 0.335196,1.086355 0.348971,2.439988 -0.0046,-0.08622 -0.03214,-0.163815 -0.0551,-0.241412 0,0 0,-0.0043 0,-0.0043 -0.01378,-0.05173 -0.01378,-0.103462 -0.03214,-0.150882 -0.0551,-0.129328 -0.128568,-0.245724 -0.224994,-0.340564 -0.119385,-0.116395 -0.261728,-0.193992 -0.417847,-0.241412 z m 0.730084,14.635617 c 0,0.13795 -0.03214,0.267278 -0.07347,0.392295 0.03673,-0.129328 0.07347,-0.254345 0.07347,-0.392295 z m -0.312237,-7.889007 c 0.192852,-0.198303 0.312237,-0.474203 0.312237,-0.775968 0,0.301765 -0.119385,0.577665 -0.312237,0.775968 z m 0.312237,-5.574037 v -0.06898 c 0,0.02155 0,0.04742 0,0.06898 z"
   inkscape:connector-curvature="0" /><path
   style="fill:none;stroke:#800080;stroke-width:1px;stroke-linecap:butt;stroke-linejoin:miter;stroke-opacity:1;fill-opacity:1"
   d="m 35.100261,56.446301 36.320146,0.249478"
   id="path910"
   inkscape:connector-curvature="0"
   sodipodi:nodetypes="cc" /><path
   style="fill:none;stroke:#800080;stroke-width:1px;stroke-linecap:butt;stroke-linejoin:miter;stroke-opacity:1"
   d="m 34.972394,65.408353 36.33322,0.129149"
   id="path912"
   inkscape:connector-curvature="0"
   sodipodi:nodetypes="cc" /></svg>