<?xml version="1.0" encoding="UTF-8" standalone="no"?>
<!-- Generator: Adobe Illustrator 19.0.0, SVG Export Plug-In . SVG Version: 6.00 Build 0)  -->

<svg
   xmlns:dc="http://purl.org/dc/elements/1.1/"
   xmlns:cc="http://creativecommons.org/ns#"
   xmlns:rdf="http://www.w3.org/1999/02/22-rdf-syntax-ns#"
   xmlns:svg="http://www.w3.org/2000/svg"
   xmlns="http://www.w3.org/2000/svg"
   xmlns:xlink="http://www.w3.org/1999/xlink"
   xmlns:sodipodi="http://sodipodi.sourceforge.net/DTD/sodipodi-0.dtd"
   xmlns:inkscape="http://www.inkscape.org/namespaces/inkscape"
   version="1.1"
   id="Layer_1"
   x="0px"
   y="0px"
   viewBox="0 0 100 100"
   xml:space="preserve"
   sodipodi:docname="svg.svg"
   width="100"
   height="100"
   inkscape:version="0.92.4 5da689c313, 2019-01-14"><metadata
   id="metadata1026"><rdf:RDF><cc:Work
       rdf:about=""><dc:format>image/svg+xml</dc:format><dc:type
         rdf:resource="http://purl.org/dc/dcmitype/StillImage" /><dc:title /></cc:Work></rdf:RDF></metadata><defs
   id="defs1024"><linearGradient
     id="linear-gradient-5"
     x1="-16.038"
     x2="489.73499"
     xlink:href="#linear-gradient"
     y1="508.73199"
     y2="2.9590001"
     gradientTransform="matrix(0.14705398,0,0,0.15625317,12.354183,9.9995489)" /><linearGradient
     id="linear-gradient"
     gradientUnits="userSpaceOnUse"
     x1="-6.3850002"
     x2="499.388"
     y1="518.38501"
     y2="12.612"><stop
       offset="0"
       stop-color="#003f8a"
       id="stop2" /><stop
       offset=".518"
       stop-color="#00d7df"
       id="stop4" /><stop
       offset="1"
       stop-color="#006df0"
       id="stop6" /></linearGradient><linearGradient
     id="linear-gradient-4"
     x1="55.615002"
     x2="561.388"
     xlink:href="#linear-gradient"
     y1="580.38501"
     y2="74.612"
     gradientTransform="matrix(0.14705398,0,0,0.15625317,12.354183,9.9995489)" /></defs><sodipodi:namedview
   pagecolor="#ffffff"
   bordercolor="#666666"
   borderopacity="1"
   objecttolerance="10"
   gridtolerance="10"
   guidetolerance="10"
   inkscape:pageopacity="0"
   inkscape:pageshadow="2"
   inkscape:window-width="1366"
   inkscape:window-height="740"
   id="namedview1022"
   showgrid="false"
   inkscape:zoom="5.0938482"
   inkscape:cx="-6.2946858"
   inkscape:cy="46.600792"
   inkscape:window-x="0"
   inkscape:window-y="0"
   inkscape:window-maximized="1"
   inkscape:current-layer="Layer_1" />

<path
   style="fill:#00d7df;stroke-width:0.27804795;fill-opacity:1"
   d="M 24.443466,10 C 21.990259,10 20,11.990271 20,14.444619 V 85.556501 C 20,88.010836 21.990259,90 24.443466,90 h 51.111956 c 2.454319,0 4.443466,-1.989164 4.443466,-4.443499 V 30.58203 L 58.576215,10 Z"
   id="path977"
   inkscape:connector-curvature="0" />
<path
   style="fill:#000000;stroke-width:0.27804795;opacity:0.2"
   d="M 80,30.58203 H 63.020793 c -2.454319,0 -4.443467,-1.990284 -4.443467,-4.444619 V 10 Z"
   id="path979"
   inkscape:connector-curvature="0" />


<g
   id="g991"
   transform="scale(0.21100073)">
</g>
<g
   id="g993"
   transform="scale(0.21100073)">
</g>
<g
   id="g995"
   transform="scale(0.21100073)">
</g>
<g
   id="g997"
   transform="scale(0.21100073)">
</g>
<g
   id="g999"
   transform="scale(0.21100073)">
</g>
<g
   id="g1001"
   transform="scale(0.21100073)">
</g>
<g
   id="g1003"
   transform="scale(0.21100073)">
</g>
<g
   id="g1005"
   transform="scale(0.21100073)">
</g>
<g
   id="g1007"
   transform="scale(0.21100073)">
</g>
<g
   id="g1009"
   transform="scale(0.21100073)">
</g>
<g
   id="g1011"
   transform="scale(0.21100073)">
</g>
<g
   id="g1013"
   transform="scale(0.21100073)">
</g>
<g
   id="g1015"
   transform="scale(0.21100073)">
</g>
<g
   id="g1017"
   transform="scale(0.21100073)">
</g>
<g
   id="g1019"
   transform="scale(0.21100073)">
</g>
<path
   inkscape:connector-curvature="0"
   style="fill:#ffffff;stroke-width:0.15158381"
   id="path19"
   d="m 51.052173,55.691415 a 1.1764319,1.2500254 0 0 0 -2.104334,0 l -8.235026,17.500353 a 1.1764319,1.2500254 0 0 0 1.73524,1.576278 l 7.551946,-5.731207 7.551374,5.731207 a 1.1764319,1.2500254 0 0 0 1.73524,-1.576278 z m -0.36852,10.792094 a 1.1764319,1.2500254 0 0 0 -1.367601,0 l -4.380585,3.324903 5.064532,-10.762708 5.064547,10.762708 z" /><path
   inkscape:connector-curvature="0"
   style="fill:#ffffff;stroke-width:0.15158381"
   id="path21"
   d="M 66.470054,35.000053 A 3.5348838,3.7560138 0 0 0 63.137067,37.51885 1.1827552,1.2567443 0 0 0 62.94076,37.50005 H 53.529306 V 36.250025 A 1.1764319,1.2500254 0 0 0 52.352866,35 h -4.70572 a 1.1764319,1.2500254 0 0 0 -1.176441,1.250025 v 1.250025 h -9.411452 a 1.1827552,1.2567443 0 0 0 -0.19632,0.0188 3.5292956,3.7500762 0 1 0 0,2.462557 1.1827552,1.2567443 0 0 0 0.19632,0.0188 h 2.794027 a 14.126005,15.009681 0 0 0 -6.273468,11.250227 h -1.22628 a 1.1764319,1.2500254 0 0 0 -1.17644,1.250025 v 5.000101 a 1.1764319,1.2500254 0 0 0 1.17644,1.250025 h 4.705721 a 1.1764319,1.2500254 0 0 0 1.17644,-1.250025 v -5.000101 a 1.1764319,1.2500254 0 0 0 -1.17644,-1.250025 h -1.117614 a 11.784906,12.52213 0 0 1 10.529066,-11.18772 v 1.187518 a 1.1764319,1.2500254 0 0 0 1.176441,1.250025 h 4.70572 a 1.1764319,1.2500254 0 0 0 1.17644,-1.250025 v -1.187518 a 11.784906,12.52213 0 0 1 10.529054,11.18772 h -1.1176 a 1.1764319,1.2500254 0 0 0 -1.17644,1.250025 v 5.000101 a 1.1764319,1.2500254 0 0 0 1.17644,1.250025 h 4.705721 a 1.1764319,1.2500254 0 0 0 1.17644,-1.250025 v -5.000101 a 1.1764319,1.2500254 0 0 0 -1.17644,-1.250025 h -1.22584 A 14.126005,15.009681 0 0 0 60.146733,40.000207 h 2.794027 a 1.1827552,1.2567443 0 0 0 0.196307,-0.0188 3.5292956,3.7500762 0 1 0 3.332987,-4.981354 z m -32.940095,5.000101 a 1.1764319,1.2500254 0 1 1 1.176427,-1.250025 1.1777554,1.2514317 0 0 1 -1.176427,1.250025 z m 2.352867,16.250327 h -2.352867 v -2.50005 h 2.352867 z m 30.587228,0 h -2.352867 v -2.50005 h 2.352867 z M 51.176439,40.000154 h -2.352867 v -2.500051 h 2.352867 z m 15.293615,0 a 1.1764319,1.2500254 0 1 1 1.176427,-1.250025 1.1777554,1.2514317 0 0 1 -1.176427,1.250025 z" /></svg>