<?xml version="1.0" encoding="UTF-8" standalone="no"?>
<!-- Generator: Adobe Illustrator 19.0.0, SVG Export Plug-In . SVG Version: 6.00 Build 0)  -->

<svg
   xmlns:dc="http://purl.org/dc/elements/1.1/"
   xmlns:cc="http://creativecommons.org/ns#"
   xmlns:rdf="http://www.w3.org/1999/02/22-rdf-syntax-ns#"
   xmlns:svg="http://www.w3.org/2000/svg"
   xmlns="http://www.w3.org/2000/svg"
   xmlns:sodipodi="http://sodipodi.sourceforge.net/DTD/sodipodi-0.dtd"
   xmlns:inkscape="http://www.inkscape.org/namespaces/inkscape"
   version="1.1"
   id="Layer_1"
   x="0px"
   y="0px"
   viewBox="0 0 100 100"
   xml:space="preserve"
   sodipodi:docname="video.svg"
   width="100"
   height="100"
   inkscape:version="0.92.4 5da689c313, 2019-01-14"><metadata
   id="metadata1026"><rdf:RDF><cc:Work
       rdf:about=""><dc:format>image/svg+xml</dc:format><dc:type
         rdf:resource="http://purl.org/dc/dcmitype/StillImage" /><dc:title /></cc:Work></rdf:RDF></metadata><defs
   id="defs1024" /><sodipodi:namedview
   pagecolor="#ffffff"
   bordercolor="#666666"
   borderopacity="1"
   objecttolerance="10"
   gridtolerance="10"
   guidetolerance="10"
   inkscape:pageopacity="0"
   inkscape:pageshadow="2"
   inkscape:window-width="1366"
   inkscape:window-height="740"
   id="namedview1022"
   showgrid="false"
   inkscape:zoom="5.0938482"
   inkscape:cx="-6.2946858"
   inkscape:cy="46.600792"
   inkscape:window-x="0"
   inkscape:window-y="0"
   inkscape:window-maximized="1"
   inkscape:current-layer="Layer_1" />

<path
   style="fill:#37c8ab;stroke-width:0.27804795;fill-opacity:1"
   d="M 24.443466,10 C 21.990259,10 20,11.990271 20,14.444619 V 85.556501 C 20,88.010836 21.990259,90 24.443466,90 h 51.111956 c 2.454319,0 4.443466,-1.989164 4.443466,-4.443499 V 30.58203 L 58.576215,10 Z"
   id="path977"
   inkscape:connector-curvature="0" />
<path
   style="fill:#000000;stroke-width:0.27804795;opacity:0.2"
   d="M 80,30.58203 H 63.020793 c -2.454319,0 -4.443467,-1.990284 -4.443467,-4.444619 V 10 Z"
   id="path979"
   inkscape:connector-curvature="0" />


<g
   id="g991"
   transform="scale(0.21100073)">
</g>
<g
   id="g993"
   transform="scale(0.21100073)">
</g>
<g
   id="g995"
   transform="scale(0.21100073)">
</g>
<g
   id="g997"
   transform="scale(0.21100073)">
</g>
<g
   id="g999"
   transform="scale(0.21100073)">
</g>
<g
   id="g1001"
   transform="scale(0.21100073)">
</g>
<g
   id="g1003"
   transform="scale(0.21100073)">
</g>
<g
   id="g1005"
   transform="scale(0.21100073)">
</g>
<g
   id="g1007"
   transform="scale(0.21100073)">
</g>
<g
   id="g1009"
   transform="scale(0.21100073)">
</g>
<g
   id="g1011"
   transform="scale(0.21100073)">
</g>
<g
   id="g1013"
   transform="scale(0.21100073)">
</g>
<g
   id="g1015"
   transform="scale(0.21100073)">
</g>
<g
   id="g1017"
   transform="scale(0.21100073)">
</g>
<g
   id="g1019"
   transform="scale(0.21100073)">
</g>
<path
   inkscape:connector-curvature="0"
   d="M 71.724137,39 H 28.275862 C 27.847587,39 27.5,39.349826 27.5,39.782609 V 74.217391 C 27.5,74.650174 27.847587,75 28.275862,75 H 71.724137 C 72.152413,75 72.5,74.650174 72.5,74.217391 V 39.782609 C 72.5,39.349826 72.152413,39 71.724137,39 Z M 35.258621,73.434783 h -6.206897 v -7.043477 h 6.206897 z m 0,-8.608695 H 29.051724 V 57.78261 h 6.206897 z m 0,-8.608696 h -6.206897 v -7.043479 h 6.206897 z m 0,-8.608696 h -6.206897 v -7.043479 h 6.206897 z m 20.589051,10.051827 -8.534482,5.478261 c -0.126466,0.08061 -0.271552,0.122087 -0.416638,0.122087 -0.128793,0 -0.256811,-0.03209 -0.37319,-0.09626 -0.248276,-0.13774 -0.402672,-0.400697 -0.402672,-0.686349 V 51.52174 c 0,-0.285653 0.154396,-0.548609 0.402672,-0.686348 0.248276,-0.136957 0.550862,-0.126783 0.790603,0.02583 l 8.534483,5.478261 c 0.222673,0.144 0.358448,0.39287 0.358448,0.660522 0,0.267652 -0.135775,0.516522 -0.359224,0.660522 z m 15.100603,15.77426 h -6.206896 v -7.043477 h 6.206896 z m 0,-8.608695 H 64.741379 V 57.78261 h 6.206896 z m 0,-8.608696 h -6.206896 v -7.043479 h 6.206896 z m 0,-8.608696 h -6.206896 v -7.043479 h 6.206896 z"
   id="path2"
   style="fill:#ffffff;stroke-width:0.77922809" /></svg>