<?xml version="1.0" encoding="UTF-8" standalone="no"?>
<!-- Generator: Adobe Illustrator 19.0.0, SVG Export Plug-In . SVG Version: 6.00 Build 0)  -->

<svg
   xmlns:dc="http://purl.org/dc/elements/1.1/"
   xmlns:cc="http://creativecommons.org/ns#"
   xmlns:rdf="http://www.w3.org/1999/02/22-rdf-syntax-ns#"
   xmlns:svg="http://www.w3.org/2000/svg"
   xmlns="http://www.w3.org/2000/svg"
   xmlns:sodipodi="http://sodipodi.sourceforge.net/DTD/sodipodi-0.dtd"
   xmlns:inkscape="http://www.inkscape.org/namespaces/inkscape"
   version="1.1"
   id="Layer_1"
   x="0px"
   y="0px"
   viewBox="0 0 100 100"
   xml:space="preserve"
   sodipodi:docname="zip.svg"
   width="100"
   height="100"
   inkscape:version="0.92.4 5da689c313, 2019-01-14"><metadata
   id="metadata1026"><rdf:RDF><cc:Work
       rdf:about=""><dc:format>image/svg+xml</dc:format><dc:type
         rdf:resource="http://purl.org/dc/dcmitype/StillImage" /><dc:title /></cc:Work></rdf:RDF></metadata><defs
   id="defs1024">














</defs><sodipodi:namedview
   pagecolor="#ffffff"
   bordercolor="#666666"
   borderopacity="1"
   objecttolerance="10"
   gridtolerance="10"
   guidetolerance="10"
   inkscape:pageopacity="0"
   inkscape:pageshadow="2"
   inkscape:window-width="1366"
   inkscape:window-height="740"
   id="namedview1022"
   showgrid="false"
   inkscape:zoom="5.0938482"
   inkscape:cx="17.949519"
   inkscape:cy="46.600792"
   inkscape:window-x="0"
   inkscape:window-y="0"
   inkscape:window-maximized="1"
   inkscape:current-layer="Layer_1" />

<path
   style="fill:#ccb600;fill-opacity:1;stroke-width:0.27805051"
   d="M 24.443548,10 C 21.990296,10 20,11.990271 20,14.444619 V 85.556501 C 20,88.010836 21.990296,90 24.443548,90 H 75.556452 C 78.010816,90 80,88.010836 80,85.556501 V 30.58203 L 58.57693,10 Z"
   id="path977"
   inkscape:connector-curvature="0" />
<path
   style="fill:#000000;stroke-width:0.27804795;opacity:0.2"
   d="M 80,30.58203 H 63.020793 c -2.454319,0 -4.443467,-1.990284 -4.443467,-4.444619 V 10 Z"
   id="path979"
   inkscape:connector-curvature="0" />

















<g
   transform="matrix(0.09943182,0,0,0.10044643,32.5,30)"
   id="g854"
   style="fill:#ffffff"><path
     inkscape:connector-curvature="0"
     id="path2"
     d="m 8,264 c 0.027344,22.08203 17.917969,39.97266 40,40 H 296 V 288 H 104 c -4.417969,0 -8,-3.58203 -8,-8 V 264 H 64 c -4.417969,0 -8,-3.58203 -8,-8 V 48 c 0,-4.417969 3.582031,-8 8,-8 H 96 V 24 c 0,-4.417969 3.582031,-8 8,-8 H 296 V 0 H 48 C 25.917969,0.0273438 8.027344,17.917969 8,40 Z m 0,0"
     style="fill:#ffffff" /><path
     inkscape:connector-curvature="0"
     id="path4"
     d="m 112,32 h 240 v 8 H 112 Z m 0,0"
     style="fill:#ffffff" /><path
     inkscape:connector-curvature="0"
     id="path6"
     d="M 336,120 H 128 v 128 h 208 z m -192,16 h 32 v 16 h -32 z m 96,48 h -96 v -16 h 96 z m 0,0"
     style="fill:#ffffff" /><path
     inkscape:connector-curvature="0"
     id="path8"
     d="m 336,424 c 0,13.25391 -10.74609,24 -24,24 -13.25391,0 -24,-10.74609 -24,-24 0,-13.25391 10.74609,-24 24,-24 13.25391,0 24,10.74609 24,24 z m 0,0"
     style="fill:#ffffff" /><path
     inkscape:connector-curvature="0"
     id="path10"
     d="M 120,432 V 416 H 63.199219 c 1.078125,5.27734 1.078125,10.72266 0,16 z m 0,0"
     style="fill:#ffffff" /><path
     inkscape:connector-curvature="0"
     id="path12"
     d="m 216,416 v 16 h 56.80078 c -1.07812,-5.27734 -1.07812,-10.72266 0,-16 z m 0,0"
     style="fill:#ffffff" /><path
     inkscape:connector-curvature="0"
     id="path14"
     d="m 48,424 c 0,13.25391 -10.746094,24 -24,24 -13.253906,0 -24,-10.74609 -24,-24 0,-13.25391 10.746094,-24 24,-24 13.253906,0 24,10.74609 24,24 z m 0,0"
     style="fill:#ffffff" /><path
     inkscape:connector-curvature="0"
     id="path16"
     d="m 152,384 h 32 v 8 h -32 z m 0,0"
     style="fill:#ffffff" /><path
     inkscape:connector-curvature="0"
     id="path18"
     d="m 136,408 h 64 v 32 h -64 z m 0,0"
     style="fill:#ffffff" /><path
     inkscape:connector-curvature="0"
     id="path20"
     d="m 152,320 h 32 v 16 h -32 z m 0,0"
     style="fill:#ffffff" /><path
     inkscape:connector-curvature="0"
     id="path22"
     d="m 112,264 h 240 v 8 H 112 Z m 0,0"
     style="fill:#ffffff" /><path
     inkscape:connector-curvature="0"
     id="path24"
     d="m 152,352 h 32 v 16 h -32 z m 0,0"
     style="fill:#ffffff" /><path
     inkscape:connector-curvature="0"
     id="path26"
     d="M 336,56 H 251.19922 L 239.29687,83.199219 C 238.02734,86.101562 235.16797,87.984375 232,88 H 128 v 16 h 208 z m 0,0"
     style="fill:#ffffff" /></g></svg>